<!DOCTYPE svg PUBLIC "-//W3C//DTD SVG 1.1//EN" "http://www.w3.org/Graphics/SVG/1.1/DTD/svg11.dtd">
<!-- Uploaded to: SVG Repo, www.svgrepo.com, Transformed by: SVG Repo Mixer Tools -->
<svg width="800px" height="800px" viewBox="-145.01 0 444.159 444.159" xmlns="http://www.w3.org/2000/svg" fill="#000000" stroke="#000000">
<g id="SVGRepo_bgCarrier" stroke-width="0"/>
<g id="SVGRepo_tracerCarrier" stroke-linecap="round" stroke-linejoin="round"/>
<g id="SVGRepo_iconCarrier">
<defs>
<style>.a{fill:#251d25;}.b{fill:#ffffff;}.c{fill:#211715;}.d{fill:#b06911;}.e{fill:#645d5c;}.f{fill:none;}.g{fill:#c6c6c6;}</style>
</defs>
<path class="a" d="M69.212,8.644a12.46,12.46,0,0,0-.948,1.21c-1.929,2.8-2.22,6.414-4.212,9.266-2.3,3.294-6.666,6.845-9.111,10.994C48.455,41.125,56.3,52.6,53.583,65.139c-.821,3.793-1.978,8.5-.341,12.306,1.7,3.965,6.448,12.679.622,19.6a44.314,44.314,0,0,0,1.016,8.386c3.606,1.418,61.279-.461,61.279-.461a44.777,44.777,0,0,0,19.07-5.187c1.111-.655,5.262-3.628,5.268-5.9,0-.156-2.367-3.461-2.414-4.1-.076-1.028,1.324-2.154,1.234-3-.357-3.36-4.775-7.484-5.4-11.382-1.456-9.114,4.62-14.421,3.91-23.669-.64-8.348-2.39-16.656-8.654-22.276-5.709-5.122-5.568-12.261-9.212-17.811a27.243,27.243,0,0,0-3.433-3.834C109.376,1.48,96.414.905,89.158,4.533c-.72.173-2.333.437-2.971.551C81.318,4.116,73.846,3.426,69.212,8.644Z"/>
<path class="b" d="M103.713,25.568C100.363,23.727,96.22,24,91.877,27.3c-3.617,2.752-4.124,5.747-6.646,9.156-4.19,5.663-16.539,3.554-17.669,13.4-.725-.652-1.261-1.136-1.261-1.136a4.281,4.281,0,0,0-3.428-1,4.043,4.043,0,0,0-2.908,1.933,5.734,5.734,0,0,0-.6,2.3,17.146,17.146,0,0,0,1.748,9.084,10.887,10.887,0,0,0,2.816,3.7,7.226,7.226,0,0,0,3.359,1.514l1.095.168A29.123,29.123,0,0,0,73.938,77.26a25.325,25.325,0,0,0,8.029,6.589,38.431,38.431,0,0,1-.609,6.875c-.345,1.967-.237,3.725-2.972,4.713-.088.032-.432.146-.823.276,2.507,2.17,13.411,10.872,16.778,10.9,3,.024,14.447-6.906,17.9-10.413-.9-.352-1.866-.727-1.966-.763-2.734-.988-2.627-2.746-2.971-4.713A38.912,38.912,0,0,1,106.7,84.5c7.562-2.651,13.749-12.962,14.8-15.8.152-.461.461-1.328.739-2.362l.573-.088a7.218,7.218,0,0,0,3.358-1.514,10.878,10.878,0,0,0,2.817-3.7,17.136,17.136,0,0,0,1.747-9.084,5.717,5.717,0,0,0-.6-2.3,4.045,4.045,0,0,0-2.909-1.933,4.243,4.243,0,0,0-3.631,1.2c-4.825-2.511-7.158-4.11-10.028-8.323-2.674-3.926-4.126-10.206-6.354-12.552Z"/>
<path class="c" d="M105.792,29.462a19.168,19.168,0,0,1,2.553,4.94,45.534,45.534,0,0,0,3.1,6.613,25.642,25.642,0,0,0,10.172,9.131c2.268,1.217,4.29-2.235,2.019-3.454a25.7,25.7,0,0,1-5.183-3.386,19.968,19.968,0,0,1-3.995-5.06,62.544,62.544,0,0,1-2.818-6.241,18.151,18.151,0,0,0-3.024-5.371c-1.74-1.905-4.563.93-2.828,2.828Z"/>
<path class="c" d="M79.963,84.609q-.023,1.209-.121,2.414-.046.546-.107,1.091-.032.273-.065.545c-.019.141-.019.145,0,.013l-.031.217c-.161,1.085-.283,2.214-.549,3.28-.024.1-.051.2-.081.294s-.192.361-.022.1c.219-.333-.257.382-.24.405-.031-.041.341-.362.035-.058-.079.079-.159.157-.239.234-.31.3.343-.185-.062.036-.119.065-.231.139-.351.2s-.347.157-.092.057c-.094.037-.186.069-.281.1-.166.059-.333.112-.5.168-.461.154-.922.306-1.382.462a2,2,0,1,0,1.063,3.857A20.7,20.7,0,0,0,80.223,96.8a5.523,5.523,0,0,0,2.623-3.214,21.508,21.508,0,0,0,.617-3.414,43,43,0,0,0,.5-5.561,2.018,2.018,0,0,0-2-2,2.038,2.038,0,0,0-2,2Z"/>
<path class="c" d="M104.7,84.609a50.016,50.016,0,0,0,.724,6.926,7.61,7.61,0,0,0,1.53,4.092,8.384,8.384,0,0,0,3.552,2.032c.926.359,1.856.712,2.775,1.086a2.006,2.006,0,0,0,2.461-1.4,2.062,2.062,0,0,0-1.4-2.46c-.813-.331-1.635-.643-2.453-.961-.345-.134-.69-.27-1.036-.4-.079-.03-.159-.057-.237-.089.337.139-.2-.117-.267-.154-.113-.065-.536-.421-.175-.089-.1-.1-.2-.2-.306-.293-.3-.286.182.337-.009-.014-.06-.112-.124-.223-.187-.334-.184-.329.109.423-.007-.052-.035-.145-.084-.286-.118-.432-.133-.572-.2-1.158-.292-1.737a39.435,39.435,0,0,1-.558-5.723,2,2,0,0,0-4,0Z"/>
<path class="c" d="M85.792,2.982c-6.545-1.134-14.025-.773-18.5,4.854-2.575,3.239-2.851,7.57-5.358,10.811-2.423,3.132-5.446,5.731-7.75,8.97a21.543,21.543,0,0,0-3.842,11.327c-.233,4.02.483,8.033,1.071,11.993a42.773,42.773,0,0,1,.545,11.986c-.588,4.344-2.068,8.435-1.282,12.879a22.36,22.36,0,0,0,1.7,4.654,35.076,35.076,0,0,1,1.671,4.871c.9,3.531.944,7.423-1.6,10.3-1.7,1.921,1.117,4.76,2.828,2.829,4.83-5.453,3.567-12.741,1.013-18.937a34.442,34.442,0,0,1-1.531-3.773,13.839,13.839,0,0,1-.1-5.834c.327-2.058.89-4.071,1.184-6.134a32.88,32.88,0,0,0,.3-6.12c-.331-7.523-3.293-15.452-1.066-22.906,1.163-3.895,3.858-6.862,6.571-9.772A54.916,54.916,0,0,0,65.285,20.8a19.369,19.369,0,0,0,2.69-5.416,14.963,14.963,0,0,1,2.85-5.545,10.088,10.088,0,0,1,4.253-2.71,20.156,20.156,0,0,1,9.651-.291,2.058,2.058,0,0,0,2.46-1.4,2.016,2.016,0,0,0-1.4-2.46Z"/>
<path class="c" d="M67.265,75.721c-2.792,1.608-3.777,4.487-3.91,7.553-.058,1.32.02,2.64,0,3.96-.006.3-.015.6-.034.9-.01.145-.024.29-.035.436-.036.476.058-.231-.008.1-.053.27-.1.54-.171.806-.035.129-.077.256-.118.383-.02.062-.052.123-.068.186-.057.219.182-.3.046-.118a3.383,3.383,0,0,0-.217.4c-.032.056-.075.106-.106.162-.121.217.249-.275.077-.093-.106.112-.208.227-.317.338-.048.048-.1.088-.152.135-.181.177.3-.191.074-.058-.146.086-.288.182-.436.267-.066.038-.138.067-.2.1-.244.133.313-.109.036-.013a9.4,9.4,0,0,1-1.309.352,2.018,2.018,0,0,0-1.4,2.46,2.042,2.042,0,0,0,2.46,1.4,6.783,6.783,0,0,0,5.7-5.922,27.329,27.329,0,0,0,.167-4.233c-.008-.649-.014-1.3.015-1.948.014-.33.04-.659.072-.988.007-.075.017-.149.026-.224,0,.008-.064.39-.018.163.035-.168.059-.338.1-.506.074-.331.183-.645.284-.968s-.164.286.055-.108c.081-.145.161-.29.246-.433.048-.082.108-.158.16-.238-.078.12-.215.234-.045.063.123-.123.233-.256.36-.375s.449-.344.134-.131c.183-.124.366-.243.558-.354,2.23-1.284.218-4.742-2.019-3.454Z"/>
<path class="c" d="M118.55,13.062c1.89,2.345,2.715,5.341,3.663,8.142a24.246,24.246,0,0,0,4.481,8.6c1.149,1.294,2.505,2.357,3.564,3.741a22.544,22.544,0,0,1,2.492,4.2,34.875,34.875,0,0,1,2.641,9.777,27.243,27.243,0,0,1,.014,9.915c-.678,2.989-1.9,5.811-2.737,8.754a21.449,21.449,0,0,0-.648,9.906c.614,3.179,2.848,5.767,4.381,8.528a13.174,13.174,0,0,1,.86,2c.009.026.1.415.09.417-.159.041.4-.788-.111-.251a4.911,4.911,0,0,0-.677,1.129,3.918,3.918,0,0,0,.4,4.114c.31.519.643,1.025.974,1.531.093.142.6,1.162.767,1.188.337.052-.466-.783-.209-.852,0,0-.22.479-.245.523a4.866,4.866,0,0,1-.676.883,17.9,17.9,0,0,1-2.218,1.991,2.013,2.013,0,0,0,0,2.829,2.053,2.053,0,0,0,2.829,0c2.107-1.644,5.547-4.755,3.8-7.68-.555-.927-1.207-1.793-1.741-2.735-.053-.093-.1-.188-.157-.281-.23-.4,0-.044-.014.024.036-.17-.108.228.1.2.448-.064,1.056-2.057,1.1-2.364.218-1.488-.572-3.109-1.251-4.385-.8-1.5-1.79-2.894-2.653-4.36a12.594,12.594,0,0,1-1.339-9.28c.633-3.1,1.915-6.021,2.791-9.056a27.151,27.151,0,0,0,.836-10.459c-.729-7.25-2.5-14.633-7.526-20.172a29.958,29.958,0,0,1-3.8-4.243,24.037,24.037,0,0,1-2.147-4.859c-1.243-3.628-2.363-7.211-4.8-10.242a2.014,2.014,0,0,0-2.829,0,2.048,2.048,0,0,0,0,2.829Z"/>
<path class="c" d="M91.753,5.578c7.1-2.5,16.986-2.426,22.724,3.059,1.861,1.779,4.694-1.045,2.829-2.828-6.757-6.46-18.138-7.071-26.617-4.088-2.412.849-1.374,4.715,1.064,3.857Z"/>
<path class="c" d="M121.083,79.751a7.62,7.62,0,0,1,.768.746c.032.035.329.4.178.206-.135-.177.166.249.2.3a9.555,9.555,0,0,1,.484.839c.081.158.154.32.231.48.16.338-.04-.115.042.1a34.808,34.808,0,0,1,1.162,3.972c.674,2.719,1.451,5.627,3.6,7.58a2.046,2.046,0,0,0,2.829,0,2.021,2.021,0,0,0,0-2.829,7.555,7.555,0,0,1-.691-.718c.179.211.067.095-.035-.06-.092-.139-.184-.277-.269-.421-.16-.267-.292-.545-.434-.821-.194-.379.1.284-.071-.156-.051-.136-.1-.272-.154-.409a40.175,40.175,0,0,1-1.1-3.95c-.7-2.8-1.637-5.748-3.915-7.687a2.052,2.052,0,0,0-2.828,0,2.016,2.016,0,0,0,0,2.828Z"/>
<path class="c" d="M125.206,50.138a2.209,2.209,0,0,1,3.125.412,4.723,4.723,0,0,1,.452,2.4,14.445,14.445,0,0,1-.2,2.952c-.64,3.506-2.411,7.717-6.31,8.416a2.018,2.018,0,0,0-1.4,2.461,2.045,2.045,0,0,0,2.461,1.4c6.05-1.084,8.938-7.91,9.394-13.394.235-2.838-.011-6.051-2.463-7.885a6.316,6.316,0,0,0-7.89.411,2.015,2.015,0,0,0,0,2.828,2.044,2.044,0,0,0,2.829,0Z"/>
<path class="c" d="M120.76,63.061a16.047,16.047,0,0,1-.938,4.335c-.063.191-.491,1.317-.223.708q-.2.458-.426.905a36.8,36.8,0,0,1-3.166,5.09c-2.744,3.762-6.471,7.752-11.168,8.854-2.506.587-1.445,4.445,1.063,3.857,5.671-1.331,10.068-5.964,13.4-10.481,2.879-3.9,5.254-8.315,5.455-13.268.1-2.574-3.9-2.57-4,0Z"/>
<path class="c" d="M67.715,47.31a6.317,6.317,0,0,0-7.889-.411c-2.454,1.827-2.7,5.052-2.463,7.885.456,5.484,3.344,12.31,9.394,13.394a2.055,2.055,0,0,0,2.46-1.4,2.018,2.018,0,0,0-1.4-2.461c-3.9-.7-5.669-4.91-6.309-8.416a14.274,14.274,0,0,1-.2-2.785,5.519,5.519,0,0,1,.385-2.456,2.193,2.193,0,0,1,3.2-.526,2.055,2.055,0,0,0,2.828,0,2.015,2.015,0,0,0,0-2.828Z"/>
<path class="c" d="M65.533,62.838a33.4,33.4,0,0,0,7.121,15.99c4.012,4.75,9.324,8.171,15.577,8.846a2.013,2.013,0,0,0,2-2,2.046,2.046,0,0,0-2-2c-5.3-.572-9.724-3.983-13.011-7.989-3.25-3.96-4.959-8.923-5.83-13.91a2.016,2.016,0,0,0-2.46-1.4,2.044,2.044,0,0,0-1.4,2.46Z"/>
<path class="d" d="M140.147,111.511a24.946,24.946,0,0,0-5.231-6.616c-5.82-4.263-13.52-7.558-21.937-9.487-2.217,3.12-15.336,11.22-18.573,11.194-4.047-.033-18.979-12.6-17.143-11.293-8.591,1.915-16.457,5.249-22.378,9.586-1.217.892-3.284,3.661-4.947,6.616a39.882,39.882,0,0,0-2.583,6.222l17.41,44.4c.26,1.76-.209,7.16-1.473,15.348-.192,1.241-1.879,14.012-2.288,15.9a2.325,2.325,0,0,0-.038.25h69.182c-.227-1.416-2.157-13.787-2.884-18.413,0,0-.023-.216-.059-.575a41.957,41.957,0,0,0,4.995.668c3.99.135,17.185,2.971,19.474-8.817a58.878,58.878,0,0,0,.088-13.92c-.857-7.939-5.26-28.695-11.615-41.06"/>
<path class="b" d="M100.629,404.678c.009-.981.016-1.974.023-3a111.05,111.05,0,0,0,17.956-.243,25.934,25.934,0,0,0,1.867,6.839,3.892,3.892,0,0,1-1.529,1.764,7.93,7.93,0,0,1-4.061.917,22.71,22.71,0,0,1-14.268-4.93Q100.623,405.352,100.629,404.678Z"/>
<path class="b" d="M70.552,405.669c-.262.808-.564,1.613-.9,2.438a3.819,3.819,0,0,0,1.589,1.93,7.93,7.93,0,0,0,4.061.917,22.71,22.71,0,0,0,14.268-4.93c-.014-1.433-.025-2.867-.035-4.378a113.334,113.334,0,0,1-17.993-.221A24.733,24.733,0,0,1,70.552,405.669Z"/>
<path class="e" d="M50.361,437.919q-.165-.216-.312-.447a8.36,8.36,0,0,1-.553-7,22.939,22.939,0,0,1,3.595-6.273q5.2-7.109,11-13.756c1.506-1.728,3.209-3.529,5.461-3.953a3.386,3.386,0,0,0,1.684,3.552,7.93,7.93,0,0,0,4.061.917,22.54,22.54,0,0,0,15.777-6.279c-.026,4.746.022,6.326,0,11.074a9.948,9.948,0,0,1-.416,3.424c-.976,2.638-3.869,3.91-6.191,5.5-6.041,4.134-9.222,11.676-15.552,15.352a16.341,16.341,0,0,1-15.108.541A9.535,9.535,0,0,1,50.361,437.919Z"/>
<path class="e" d="M139.822,437.919q.165-.216.312-.447a8.36,8.36,0,0,0,.553-7,22.939,22.939,0,0,0-3.595-6.273q-5.205-7.109-11-13.756c-1.506-1.728-3.209-3.529-5.461-3.953a3.386,3.386,0,0,1-1.684,3.552,7.93,7.93,0,0,1-4.061.917,22.54,22.54,0,0,1-15.777-6.279c.026,4.746-.022,6.326,0,11.074a9.948,9.948,0,0,0,.416,3.424c.976,2.638,3.869,3.91,6.191,5.5,6.041,4.134,9.222,11.676,15.552,15.352a16.341,16.341,0,0,0,15.108.541A9.535,9.535,0,0,0,139.822,437.919Z"/>
<path class="b" d="M62.875,193.821c-1.391,4.88-3.111,12.983-4.234,19.344-5.435,30.8-.173,62.934,2.2,93.229,2.469,31.549,3.977,63.1,6.445,94.647,9.535.934,18.251,1.366,27.84-.007,9.335,1.447,18.289.94,27.821.007,2.468-31.549,3.976-63.1,6.445-94.647,2.379-30.42,7.682-62.147,2.2-93.229-.719-4.071-1.682-8.857-2.647-13.054l-1.611-6.229"/>
<path class="f" d="M128.58,136.378a62.43,62.43,0,0,1-.711,23.407c-1.4,5.926-2.035,24.531-1.072,31.055"/>
<path class="f" d="M61.379,136.378a62.431,62.431,0,0,0,.712,23.407c1.4,5.926,2.035,24.531,1.072,31.055"/>
<path class="c" d="M64.884,180.422c.536-3.916,1.169-7.817,1.587-11.747a29.335,29.335,0,0,0,.222-7.078,2.012,2.012,0,0,0-2.46-1.4,2.055,2.055,0,0,0-1.4,2.461c-.107-.775-.032-.188-.02,0s.015.376.017.564c.006.483-.01.966-.033,1.448-.062,1.337-.187,2.671-.329,4-.38,3.575-.957,7.122-1.444,10.683a2.07,2.07,0,0,0,1.4,2.461,2.014,2.014,0,0,0,2.46-1.4Z"/>
<path class="c" d="M62.933,193.91c.4-1.89.612-3.832.882-5.743.365-2.58.716-5.163,1.069-7.745a2.07,2.07,0,0,0-1.4-2.461,2.015,2.015,0,0,0-2.461,1.4c-.353,2.583-.7,5.165-1.069,7.746-.27,1.911-.482,3.853-.882,5.742a2.047,2.047,0,0,0,1.4,2.46,2.02,2.02,0,0,0,2.461-1.4Z"/>
<path class="c" d="M125.335,175.747c.965,6.137,1.905,12.278,2.884,18.413a2.014,2.014,0,0,0,2.46,1.4,2.048,2.048,0,0,0,1.4-2.46c-.979-6.135-1.919-12.277-2.884-18.414a2.014,2.014,0,0,0-2.46-1.4,2.05,2.05,0,0,0-1.4,2.461Z"/>
<path class="c" d="M127.879,121.846c.634,9.375-1.2,18.42-3.076,27.549-.517,2.512,3.338,3.587,3.857,1.063,1.942-9.456,3.876-18.9,3.219-28.612-.173-2.554-4.175-2.573-4,0Z"/>
<path class="f" d="M81.034,103.7a48.333,48.333,0,0,0,12.179,1.718A52.8,52.8,0,0,0,107.05,103.3"/>
<path class="c" d="M112.826,97.425a64.064,64.064,0,0,1,15.388,5.644,33.416,33.416,0,0,1,5.724,3.6,22.738,22.738,0,0,1,4.483,5.854c1.281,2.231,4.739.219,3.453-2.019a27.642,27.642,0,0,0-4.914-6.487,31.151,31.151,0,0,0-6.368-4.207,67.8,67.8,0,0,0-16.7-6.24c-2.5-.595-3.571,3.261-1.064,3.857Z"/>
<path class="c" d="M49.284,118.265a29.245,29.245,0,0,1,3.806-8.086,19.691,19.691,0,0,1,2.568-3.306,17.682,17.682,0,0,1,3.137-2.2,61.412,61.412,0,0,1,18.18-7.247c2.5-.595,1.444-4.453-1.063-3.857a64.045,64.045,0,0,0-19.8,8.071,19.22,19.22,0,0,0-3.379,2.505,25.938,25.938,0,0,0-3.094,4.016,32.828,32.828,0,0,0-4.209,9.042c-.688,2.484,3.17,3.545,3.857,1.063Z"/>
<path class="c" d="M75.177,95.747c.133.788,1.08,1.415,1.647,1.889,1.063.889,2.149,1.752,3.244,2.6a83.055,83.055,0,0,0,9.1,6.374c2.373,1.378,4.693,2.478,7.428,1.565a45.554,45.554,0,0,0,9.613-4.963,64.341,64.341,0,0,0,5.345-3.738,13.573,13.573,0,0,0,3.278-3.252c1.375-2.185-2.085-4.2-3.453-2.019-.263.419.261-.219-.148.2-.149.154-.291.315-.443.467a19.747,19.747,0,0,1-1.512,1.334c-1.188.963-2.536,1.888-3.865,2.763a59.345,59.345,0,0,1-8.773,4.927,13.286,13.286,0,0,1-1.595.572c-.192.053-.385.093-.579.138-.442.1.376-.064.1-.015a.749.749,0,0,1-.33,0c-.252-.108.526.135.1,0-.089-.027-.186-.038-.275-.069-.253-.091-.51-.164-.761-.263.362.142-.261-.121-.378-.177-.35-.168-.694-.348-1.034-.534A66.564,66.564,0,0,1,83.8,98.1c-1.173-.888-2.35-1.814-3.513-2.767-.412-.338-.824-.678-1.227-1.027a3.768,3.768,0,0,0-.337-.3c-.437-.3.1-.607.312.675a2.016,2.016,0,0,0-2.46-1.4,2.048,2.048,0,0,0-1.4,2.461Z"/>
<path class="c" d="M69.609,400.893a28.269,28.269,0,0,1-1.932,6.785,2.005,2.005,0,0,0,.2,1.541,2,2,0,0,0,2.736.717,2.356,2.356,0,0,0,.92-1.195,28.273,28.273,0,0,0,1.931-6.784,2.2,2.2,0,0,0-.2-1.542,2,2,0,0,0-2.737-.717,1.922,1.922,0,0,0-.919,1.195Z"/>
<path class="c" d="M87.532,401.794l.03,4.255a2.073,2.073,0,0,0,.586,1.414,2,2,0,0,0,3.414-1.414l-.03-4.255a2.066,2.066,0,0,0-.586-1.414,2,2,0,0,0-3.414,1.414Z"/>
<path class="c" d="M52.088,436.909c-1.631-2.229-1.231-5.047-.048-7.4a52.083,52.083,0,0,1,5.491-7.93q3.03-3.954,6.266-7.746c1.712-2.014,3.554-4.809,6.288-5.424l-2.461-2.46a5.561,5.561,0,0,0,3.35,6.187c2.6,1.169,5.747.917,8.492.486a24.227,24.227,0,0,0,13.024-6.537l-3.415-1.414c-.02,4.045.157,8.12-.019,12.161-.088,2.008-1.12,3.184-2.727,4.266a57.222,57.222,0,0,0-4.73,3.256c-5.788,4.805-9.176,13.166-16.924,15.283-4.26,1.164-9.959.485-12.9-3.137a2.014,2.014,0,0,0-2.829,0,2.048,2.048,0,0,0,0,2.829c2.982,3.672,8.532,5.113,13.085,4.78a19.408,19.408,0,0,0,12.291-5.788c3.069-3.008,5.432-6.647,8.488-9.667a30.373,30.373,0,0,1,5.086-3.805,11.18,11.18,0,0,0,4.357-4.348c1.2-2.574.831-5.686.825-8.451,0-2.46-.016-4.919,0-7.379a2.022,2.022,0,0,0-3.414-1.414,20.229,20.229,0,0,1-8.822,4.983,19.462,19.462,0,0,1-5.752.7c-.946-.027-3.926-.28-3.606-1.932a2.027,2.027,0,0,0-2.46-2.46c-3.455.777-5.718,3.713-7.9,6.271q-3.795,4.455-7.336,9.115c-3.857,5.059-9.873,12.536-5.152,18.986a2.058,2.058,0,0,0,2.736.717A2.014,2.014,0,0,0,52.088,436.909Z"/>
<path class="c" d="M116.7,402.109a29.043,29.043,0,0,0,2.111,7.343,2,2,0,0,0,1.2.92,2.048,2.048,0,0,0,1.541-.2,2.017,2.017,0,0,0,.919-1.195,2.354,2.354,0,0,0-.2-1.541c.242.57.01.017-.037-.1s-.092-.232-.137-.348c-.1-.271-.2-.543-.3-.817q-.288-.821-.521-1.659a26.533,26.533,0,0,1-.712-3.464,1.994,1.994,0,0,0-.92-1.195,2,2,0,0,0-2.736.718,2.358,2.358,0,0,0-.2,1.541Z"/>
<path class="c" d="M98.651,401.794q-.015,2.211-.031,4.421a2.056,2.056,0,0,0,.585,1.414,2,2,0,0,0,3.415-1.414q.015-2.211.031-4.421a2.06,2.06,0,0,0-.586-1.414,2,2,0,0,0-3.414,1.414Z"/>
<path class="c" d="M141.548,438.928c4.721-6.451-1.3-13.928-5.152-18.986q-3.549-4.653-7.336-9.115c-2.179-2.558-4.443-5.494-7.9-6.271a2.027,2.027,0,0,0-2.46,2.46c.305,1.573-2.457,1.886-3.394,1.926a19.309,19.309,0,0,1-5.964-.7,20.235,20.235,0,0,1-8.822-4.983,2.022,2.022,0,0,0-3.414,1.414c.011,2.231,0,4.462,0,6.693a44.03,44.03,0,0,0,.184,7.081c.773,4.787,5.507,6.194,8.744,8.972,3.27,2.806,5.669,6.433,8.563,9.592,3.076,3.357,6.852,6.048,11.422,6.834,5.17.89,11.735-.224,15.218-4.514a2.061,2.061,0,0,0,0-2.829,2.015,2.015,0,0,0-2.829,0c-2.55,3.142-7.352,4.091-11.192,3.509-4-.607-7.119-2.91-9.79-5.828-2.61-2.85-4.811-6.066-7.618-8.736a29.305,29.305,0,0,0-4.739-3.567c-1.32-.827-2.967-1.735-3.615-3.241a9.962,9.962,0,0,1-.349-3.832q0-1.721,0-3.441c.007-2.231.014-4.462,0-6.693l-3.415,1.414a24.227,24.227,0,0,0,13.024,6.537c2.665.419,5.7.667,8.253-.385a5.6,5.6,0,0,0,3.589-6.288l-2.461,2.46c2.67.6,4.458,3.275,6.133,5.242q3.308,3.884,6.421,7.928a54.244,54.244,0,0,1,5.392,7.741c1.243,2.4,1.736,5.282.051,7.585a2.014,2.014,0,0,0,.717,2.736A2.045,2.045,0,0,0,141.548,438.928Z"/>
<path class="c" d="M93.942,239.762c-.345,3.771-.32,7.592-.366,11.376-.076,6.131-.081,12.263-.072,18.394.018,11.833.122,23.665.183,35.5.045,8.509,0,17.018-.023,25.526q-.04,19.633-.065,39.267c-.007,9.63-.049,19.263.055,28.892q.009.826.023,1.652c.047,2.571,4.047,2.58,4,0-.159-8.644-.084-17.3-.08-25.941q.008-19.686.058-39.372c.019-9.154.069-18.308.043-27.461-.031-11.044-.148-22.087-.182-33.131-.035-10.918-.256-21.894.3-32.8.032-.633.07-1.266.128-1.9a2.016,2.016,0,0,0-2-2,2.042,2.042,0,0,0-2,2Z"/>
<path class="c" d="M60.946,193.29a177.887,177.887,0,0,0-6.254,36.245c-.916,13.652-.243,27.355.877,40.973,1.108,13.466,2.6,26.9,3.614,40.369,1.065,14.106,1.957,28.224,2.847,42.342,1,15.946,2.01,31.893,3.253,47.822a2.068,2.068,0,0,0,2,2c9.407.914,18.762,1.244,28.151-.047a2.012,2.012,0,0,0,1.4-2.46,2.052,2.052,0,0,0-2.46-1.4c-9,1.237-18.08.779-27.087-.1l2,2c-2.2-28.207-3.649-56.466-5.695-84.684-.982-13.553-2.354-27.062-3.566-40.6-1.206-13.457-2.11-26.977-1.624-40.493a174.1,174.1,0,0,1,6.4-40.916c.7-2.481-3.157-3.541-3.857-1.063Z"/>
<path class="c" d="M127.293,200.643c1.349,5.951,2.319,12.064,3.162,18.106a167.784,167.784,0,0,1,1.48,19.511,341.7,341.7,0,0,1-1.817,38.632c-1.191,12.988-2.5,25.957-3.443,38.966-.966,13.278-1.8,26.566-2.635,39.852-.953,15.116-1.917,30.231-3.1,45.331l2-2c-9,.875-18.106,1.431-27.087.1a2.064,2.064,0,0,0-2.46,1.4,2.013,2.013,0,0,0,1.4,2.46c9.374,1.393,18.754.961,28.151.047a2.067,2.067,0,0,0,2-2c2.1-26.879,3.512-53.806,5.41-80.7.922-13.066,2.117-26.095,3.36-39.133,1.238-12.989,2.324-26.019,2.271-39.078a181.464,181.464,0,0,0-1.314-21.746c-.868-6.943-1.973-13.979-3.52-20.8-.569-2.51-4.427-1.448-3.858,1.063Z"/>
<path class="c" d="M60.966,195.628h68.9c2.574,0,2.578-4,0-4h-68.9c-2.574,0-2.578,4,0,4Z"/>
<path class="g" d="M2.093,117.612a1.859,1.859,0,0,1,1.818-1.231c14.338.506,55.847,2.549,66.914,3.095a2.7,2.7,0,0,1,2.536,2.264c1.643,9.964,7.656,44.57,9.25,53.566l.135.764a6.469,6.469,0,0,1-.9.4,8.051,8.051,0,0,1-2.671.366c-23.05-1.325-43.182-3.421-66.1-4.779a2.848,2.848,0,0,1-2.646-2.365C8.54,158.5,3.676,128.99,2.01,118.529A1.841,1.841,0,0,1,2.093,117.612Z"/>
<path class="g" d="M81.065,166.5c-.46-2.636-.976-5.6-1.52-8.734l.844.172,4.07.828c2.359.523,11.774,2.963,15.446,4.3l-1.026.83c-4.685,3.793-13.257,10.245-15.283,11.658a7.58,7.58,0,0,1-.85.52l-.135-.762C82.269,173.379,81.726,170.278,81.065,166.5Z"/>
<path class="b" d="M80.764,137.329l-4.709.259c1.1,6.428,2.356,13.656,3.489,20.174.521.109.841.169.841.169l4.07.83c1.38.3,5.19,1.27,8.85,2.29,1.073-3.47,2.556-8.245,3.673-11.869-.281-.09-.562-.171-.843-.251q-2.19-3.81-4.39-7.61a8.926,8.926,0,0,0-2.91-3.48c-1.3-.75-5.34-.55-6.84-.58Z"/>
<path class="c" d="M79.013,159.69c1.6.334,3.2.642,4.8.977,3.014.632,6,1.488,8.96,2.313,2.484.69,3.544-3.168,1.064-3.857-2.966-.825-5.946-1.682-8.961-2.313-1.6-.335-3.2-.643-4.8-.977a2.049,2.049,0,0,0-2.461,1.4,2.022,2.022,0,0,0,1.4,2.461Z"/>
<path class="c" d="M82,139.261c1.326.021,2.652-.03,3.978.041q.558.03,1.112.091c.259.029-.322-.071.057.014.15.033.3.057.452.1a2.751,2.751,0,0,0,.391.12c-.3-.029-.3-.157.035.065a4.234,4.234,0,0,1,.774.742,7.734,7.734,0,0,1,.63.9c.232.369.449.746.667,1.124q.842,1.458,1.683,2.917.877,1.521,1.757,3.043c.29.5.553,1.041.877,1.523a3.256,3.256,0,0,0,2.035,1.169,2,2,0,1,0,1.064-3.857c-.28-.087-.559-.17-.84-.25l1.195.919q-1.752-3.047-3.513-6.087c-1.006-1.744-1.951-3.722-3.538-5.023-2.434-1.993-5.87-1.5-8.816-1.551-2.575-.041-2.576,3.959,0,4Z"/>
<path class="c" d="M69.534,50.134c.53-5.063,5.407-6.323,9.577-7.784a18.9,18.9,0,0,0,6.5-3.359c2.448-2.173,3.395-5.482,5.357-8.02,2.5-3.228,6.9-5.455,10.925-4.064,2.438.843,3.485-3.019,1.063-3.857-4.209-1.456-8.637-.075-12.085,2.524A16.755,16.755,0,0,0,86.6,30.32a56.232,56.232,0,0,1-2.97,4.957,7.262,7.262,0,0,1-2.389,1.891,21.387,21.387,0,0,1-3.19,1.325,33.643,33.643,0,0,0-7.528,3.164,11.02,11.02,0,0,0-4.986,8.477,2.013,2.013,0,0,0,2,2,2.045,2.045,0,0,0,2-2Z"/>
<path class="c" d="M82.891,177.52c1.871-1.678,1.4-4.135,1.02-6.315q-.453-2.58-.9-5.16Q81.849,159.4,80.7,152.763q-2.306-13.292-4.574-26.589-.368-2.172-.73-4.346a4.93,4.93,0,0,0-4.841-4.366c-2.853-.189-5.716-.281-8.571-.421q-13.161-.644-26.322-1.266-12.995-.612-25.993-1.171-2.339-.1-4.679-.184a5.541,5.541,0,0,0-2.9.395,3.869,3.869,0,0,0-2.078,3.712c.111,1.633.514,3.3.776,4.91q.474,2.936.953,5.869,2.321,14.233,4.682,28.459.952,5.744,1.916,11.487c.445,2.649,1.925,4.542,4.739,4.81,3.547.337,7.13.444,10.686.693,13.765.964,27.511,2.18,41.275,3.166q5.311.381,10.627.71c3.182.2,6.165.526,8.942-1.357,3.4-2.3,6.628-4.9,9.877-7.408,1.95-1.5,3.895-3.014,5.811-4.562a2.012,2.012,0,0,0,0-2.828,2.047,2.047,0,0,0-2.828,0c-3.6,2.905-7.277,5.706-10.976,8.477-1.259.943-2.511,1.9-3.8,2.8-2.4,1.661-5.255.991-8,.819-13.05-.817-26.078-1.926-39.114-2.939-6.675-.518-13.352-1.007-20.034-1.421-.88-.055-2.541.273-3.06-.615a7.522,7.522,0,0,1-.423-2.245q-.42-2.5-.836-5-2.223-13.336-4.407-26.68Q5.8,129.511,4.8,123.355q-.368-2.27-.731-4.54c-.031-.191-.071-.6-.082-.588-.242.214.223.156.36.169.662.065,1.345.05,2.01.076,7.717.3,15.431.657,23.145,1.015q13.065.606,26.128,1.245,5.2.252,10.41.508l3.784.186c.438.022,1.036-.072,1.374.26.378.371.365,1.372.45,1.882,2.634,15.784,5.4,31.547,8.162,47.309.158.906.956,3.183.252,3.814-1.921,1.722.916,4.543,2.829,2.829Z"/>
<path class="c" d="M42.5,144.177c.1,0,.2.023.3.02-.523.016-.382-.066-.189-.022.178.04.355.076.529.131.063.019.125.043.188.063.363.116-.451-.225-.114-.048a5.687,5.687,0,0,1,.515.293c.056.037.333.236.036.018s-.028-.014.025.034c.119.11.218.258.342.359-.352-.287-.2-.278-.074-.083.047.07.091.143.132.216a1.885,1.885,0,0,0,.118.228q-.195-.482-.081-.19c.019.05.036.1.052.151.061.191.077.4.137.584-.141-.439-.036-.363-.034-.191,0,.119.011.237.009.357,0,.086-.017.178-.013.265.013.258.108-.541.025-.182-.042.184-.108.362-.152.544.122-.509.154-.341.054-.154-.027.051-.056.1-.086.151-.045.073-.1.14-.145.212.31-.493.244-.293.123-.177-.031.03-.341.3-.338.314-.005-.019.442-.308.2-.162-.1.059-.189.123-.288.178-.171.095-.643.234.015.017-.136.046-.269.1-.407.142s-.279.077-.42.107c-.086.018-.171.031-.257.047-.348.064.521-.052.189-.026a7.041,7.041,0,0,1-.93.022c-.135-.007-.269-.023-.4-.035.782.067.106.008-.112-.057-.082-.025-.164-.063-.247-.084-.244-.064.467.242.145.054a3.446,3.446,0,0,0-.444-.268l.239.189c-.054-.044-.107-.088-.159-.134s-.126-.118-.186-.181a1.792,1.792,0,0,0-.175-.193q.3.406.123.157c-.03-.043-.059-.086-.087-.131-.047-.074-.092-.149-.133-.226-.083-.154-.142-.446.023.095-.052-.172-.119-.336-.159-.512-.016-.068-.068-.428-.022-.056s.007,0,0-.065c-.005-.113-.005-.226,0-.339l.007-.114c.022-.216.012-.154-.028.183a3.015,3.015,0,0,0,.178-.657c-.131.507-.116.263-.023.091.051-.092.109-.176.163-.266.2-.329-.33.354-.061.082.072-.072.138-.149.212-.219s.159-.128.229-.2c-.392.4-.226.173-.076.078.171-.109.362-.181.533-.286-.456.281-.291.118-.1.054.095-.033.191-.062.287-.089s.193-.049.29-.069c.468-.1-.237.009-.095,0,.208-.007.411-.028.62-.024a2,2,0,0,0,0-4,6.647,6.647,0,0,0-3.333.829,5.55,5.55,0,0,0-2.479,2.9,5.644,5.644,0,0,0,2.5,6.745,7.1,7.1,0,0,0,6.22.073,5.12,5.12,0,0,0,2.264-1.986,5.6,5.6,0,0,0,.608-3.816,5.945,5.945,0,0,0-5.778-4.747,2.014,2.014,0,0,0-2,2A2.042,2.042,0,0,0,42.5,144.177Z"/>
<path class="b" d="M26.025,158.127a3.388,3.388,0,0,0-3.8-2.568,2.621,2.621,0,0,0-2.5,2.355c-.217,1.777.181,3.813.844,7.126.509,2.541,1.173,5.484,1.891,7.9a7.651,7.651,0,0,0,5.857,4.606c1.716.311,12.461,1.594,17.316,1.635,4.191-.158,10.456.151,10.565-3.422-1.542-.431-2.888-1.178-3.488-1.285a7.323,7.323,0,0,1-.454-1.279c-.564-2.224-2.113-6.3-3.766-7.268-1.328-.775-3.649-.886-4.394.524l-.53,1.006c-.173-.625-.349-1.275-.525-1.965a57.063,57.063,0,0,0-2.366-6.957,3.878,3.878,0,0,0-2.715-2.349c-1.435-.466-3.644.179-3.941,1.617l-.324,1.578-.686-2.888c-.769-3.237-3.274-4.216-5.154-3.773-2.113.5-2.631,2.25-1.946,4.885"/>
<path class="c" d="M45.824,167.457q.172-.276-.088.076a1.682,1.682,0,0,1,.184-.184c-.238.175-.266.2-.086.087.155-.077.155-.082,0-.013-.256.161.189-.037.281-.063q.331-.059-.111.012c.1-.008.192-.012.289-.012s.358-.038.439.019c-.287-.043-.319-.046-.094-.008.1.019.191.04.286.065.14.036.275.085.413.128.34.105-.351-.174.144.087a2.061,2.061,0,0,1,.177.115q-.36-.288-.185-.137c.08.108.211.2.3.3s.413.569.111.119c.081.121.168.238.248.361a14.784,14.784,0,0,1,1.095,2.071c.207.468-.047-.143.1.223.081.207.164.414.242.623q.2.525.37,1.059c.222.682.367,1.393.616,2.066A3.016,3.016,0,0,0,51.7,176.2a8.113,8.113,0,0,0,1.137.417c.9.355,1.766.749,2.689,1.03a2.019,2.019,0,0,0,2.46-1.4,2.041,2.041,0,0,0-1.4-2.46c-1.128-.343-2.2-1-3.349-1.246l1.2.919q-.129-.294.03.074c-.041-.1-.08-.206-.115-.311-.064-.186-.116-.374-.167-.564-.082-.305-.164-.609-.256-.911q-.3-.992-.686-1.956a16.542,16.542,0,0,0-2.341-4.338c-1.992-2.487-6.752-3.1-8.533-.017a2,2,0,1,0,3.454,2.019Z"/>
<path class="c" d="M46.789,171.523a108.246,108.246,0,0,0-4.149-13.437,6.177,6.177,0,0,0-4.958-3.988c-2.275-.3-4.959.782-5.59,3.171-.658,2.491,3.2,3.554,3.857,1.063.132-.5-.04.193-.129.117-.053-.046.541-.381.148-.152.043-.025.47-.225.278-.152s.282-.067.325-.08c.43-.125-.185-.051.26-.03.045,0,.639.06.241-.014a2.84,2.84,0,0,1,.768.248,3.557,3.557,0,0,1,.531.316c-.29-.214.13.15.153.171.258.242-.039-.1.06.08.071.126.144.254.217.38.218.377-.067-.2.091.2.077.194.156.387.232.581q.234.6.456,1.2c1.361,3.705,2.331,7.575,3.352,11.386.665,2.484,4.525,1.43,3.857-1.063Z"/>
<path class="c" d="M38.828,171.126c-1.13-4.335-2.265-8.669-3.358-13.014-.514-2.041-.9-4.164-2.46-5.712a6.055,6.055,0,0,0-6.129-1.481c-3.177,1.118-3.616,4.3-2.9,7.215.615,2.5,4.473,1.44,3.857-1.064a4.868,4.868,0,0,1-.2-1.795c-.038.311.085-.27.089-.292q-.125.261.038-.049-.2.218.034-.04c.244-.252-.09-.008.228-.148-.2.086.423-.117.53-.137-.451.085.264.008.369.012.419.015-.237-.092.211.036.125.031.248.067.369.109-.173-.084-.15-.073.067.033a3.265,3.265,0,0,1,.521.325,3.933,3.933,0,0,1,.725,1.056,14.658,14.658,0,0,1,.625,2.335c1.139,4.567,2.336,9.12,3.524,13.674.649,2.489,4.508,1.434,3.857-1.063Z"/>
<path class="c" d="M20.734,173.947a9.867,9.867,0,0,0,7.186,5.547c2.135.357,4.3.579,6.449.815,5.607.615,11.339,1.253,16.974.6,3.172-.367,6.494-1.429,6.853-5.077a2.014,2.014,0,0,0-2-2,2.043,2.043,0,0,0-2,2c-.012.12-.117.229-.4.4a4.83,4.83,0,0,1-1.492.506,23.867,23.867,0,0,1-4.507.378,76.716,76.716,0,0,1-9.03-.368c-2.928-.265-5.855-.577-8.769-.964-.153-.02-.137-.018.047.007l-.343-.048c-.185-.027-.371-.053-.556-.083a8.232,8.232,0,0,1-1.745-.417,6.363,6.363,0,0,1-3.21-3.318c-1.162-2.3-4.614-.275-3.454,2.019Z"/>
<path class="c" d="M31.267,170.169q-1.05-3.773-2.047-7.56c-.3-1.148-.6-2.3-.891-3.448a12.014,12.014,0,0,0-.887-2.866,5.5,5.5,0,0,0-8.1-1.616c-2.258,1.864-1.728,5.174-1.3,7.713a94.671,94.671,0,0,0,2.5,11.077c.725,2.464,4.586,1.415,3.857-1.064-.812-2.756-1.427-5.566-1.988-8.383-.136-.681-.271-1.361-.395-2.044-.1-.535-.208-1.2-.245-1.525a13.486,13.486,0,0,1-.095-1.434c0-.187,0-.376.012-.563.006-.118.01-.245.027-.364-.034.242,0-.005.037-.095.13-.288.074-.279.385-.4a2.865,2.865,0,0,1,.946-.015,1.05,1.05,0,0,1,.727.441c.143.183.015,0-.009-.028a3.131,3.131,0,0,1,.2.319c.013.024.129.3.049.089-.091-.231.048.208.059.256.406,1.758.867,3.5,1.329,5.247q.969,3.669,1.985,7.327c.688,2.476,4.548,1.424,3.857-1.064Z"/>
<path class="d" d="M98.128,145.423c-1.369,4.531-5.542,17.9-6.146,19.942,1.534,1.452,17,5.5,28.549,7.957l4.571-22.633c-3.779-1.281-21.7-6.145-25.473-6.5l-1.1-.105-.03.105C98.424,144.438,98.3,144.863,98.128,145.423Z"/>
<path class="c" d="M135.324,148.689c-1.763.006-3.525.079-5.287.109-.865.015-1.731.023-2.6.008a15.584,15.584,0,0,1-2.023-.118c-1.744-.442-3.463-1.05-5.2-1.538-5.1-1.434-10.219-2.805-15.381-3.989a48.95,48.95,0,0,0-6.315-1.08,2.012,2.012,0,0,0-1.929,1.468c-2.024,7.14-4.433,14.169-6.542,21.285a1.976,1.976,0,0,0,.514,1.945c1.65,1.484,4.328,2.039,6.388,2.672,3.751,1.154,7.553,2.144,11.359,3.092,7.387,1.84,14.912,3.768,22.487,4.647,6.057.7,13.332,1.455,18.422-2.578,4.479-3.548,4.815-9.391,4.9-14.683a72.908,72.908,0,0,0-1.4-14.246,174.975,174.975,0,0,0-4.1-17.339,101.293,101.293,0,0,0-6.747-17.842c-1.17-2.294-4.622-.272-3.453,2.019,4.8,9.418,7.534,20.025,9.681,30.328a93.805,93.805,0,0,1,1.843,11.66,58.25,58.25,0,0,1,0,9.2c-.181,2.334-.5,4.657-1.98,6.563-3.637,4.691-10.747,3.382-16.168,3.015-.476-.032-.949-.09-1.422-.149.567.071-.278-.041-.417-.061q-.576-.087-1.152-.182c-1.61-.266-3.215-.573-4.815-.894-3.929-.789-7.839-1.673-11.736-2.61-4.252-1.023-8.495-2.1-12.692-3.334-1.52-.446-3.039-.907-4.53-1.447-.288-.1-.572-.217-.859-.324-.517-.192.3.174-.274-.117-.162-.082-.325-.17-.49-.246-.379-.173-.282-.215-.01.029l.514,1.946c2.109-7.115,4.518-14.145,6.542-21.284l-1.928,1.468c.352.033.7.074,1.057.1.143.011.575.076-.028-.011.347.05.693.109,1.037.173.949.175,1.892.382,2.833.595,2.474.56,4.935,1.181,7.391,1.817,4.48,1.161,8.912,2.462,13.36,3.732a18.118,18.118,0,0,0,5.05.323c2.034-.021,4.066-.114,6.1-.121,2.574-.009,2.579-4.009,0-4Z"/>
<path class="c" d="M106.523,61.556c4.519.131,9.518-.117,12.262-4.274,2.085-3.159,2.377-8.456-.587-11.192-.85-.784-2.428-1.032-3.529-1.29a29.6,29.6,0,0,0-3.779-.614,25.661,25.661,0,0,0-7.3.338c-2.13.4-4.51.886-5.734,2.849a8.518,8.518,0,0,0-1.118,5.115,10.264,10.264,0,0,0,3.1,6.644,10.651,10.651,0,0,0,6.686,2.424c2.574.111,2.569-3.889,0-4a5.612,5.612,0,0,1-5.109-2.937,5.755,5.755,0,0,1-.217-5.03c.168-.288.093-.251.406-.411a9.33,9.33,0,0,1,2.026-.581,20.567,20.567,0,0,1,4.309-.532,23.851,23.851,0,0,1,8.314,1.368l-.882-.514c1.611,1.688,1.18,4.8-.183,6.554-1.952,2.513-5.85,2.165-8.664,2.083C103.949,57.481,103.951,61.481,106.523,61.556Z"/>
<path class="c" d="M74.513,49.433A23.27,23.27,0,0,1,85.26,48.239a20.629,20.629,0,0,1,2.556.53c.583.157,1.454.317,1.683.66-.145-.217.26.536.151.291a4.947,4.947,0,0,1,.222.669,5,5,0,0,1,.188,1.516,6.555,6.555,0,0,1-1.389,3.815,5.532,5.532,0,0,1-3.559,1.767,21.849,21.849,0,0,1-4.95.04,6.848,6.848,0,0,1-4.051-1.492c-1.82-1.678-2.5-5.252-.715-7.116s-1.047-4.695-2.829-2.829c-2.8,2.939-2.776,7.875-.587,11.192,2.659,4.03,7.511,4.422,11.925,4.284a11.325,11.325,0,0,0,6.07-1.7,9.639,9.639,0,0,0,3.7-5.387,9.474,9.474,0,0,0-.026-5.426A6.664,6.664,0,0,0,92.327,46.6a5.681,5.681,0,0,0-2.772-1.5,26.322,26.322,0,0,0-16.105.471,2.048,2.048,0,0,0-1.4,2.46,2.018,2.018,0,0,0,2.46,1.4Z"/>
<path class="c" d="M93.766,53.158q.068-.035.138-.066l-.478.2a4.748,4.748,0,0,1,1.186-.3l-.531.071a9.906,9.906,0,0,1,2.54,0L96.09,53a5.605,5.605,0,0,1,1.391.341l-.478-.2.048.021a2.188,2.188,0,0,0,1.541.2,2,2,0,0,0,1.4-2.46,1.929,1.929,0,0,0-.919-1.2,6.949,6.949,0,0,0-1.676-.528,13.2,13.2,0,0,0-2.014-.19,7.966,7.966,0,0,0-3.633.718,2,2,0,0,0-.718,2.736,2.051,2.051,0,0,0,2.737.718Z"/>
<path class="c" d="M120.765,51.769l.133-.058-.478.2a12.333,12.333,0,0,1,2.442-.772,2.238,2.238,0,0,0,1.2-.919,1.487,1.487,0,0,0,.238-.743,1.526,1.526,0,0,0-.036-.8,2.025,2.025,0,0,0-.919-1.2l-.478-.2a2.018,2.018,0,0,0-1.063,0,14.079,14.079,0,0,0-3.053,1.031,1.929,1.929,0,0,0-.955,1.993,1.492,1.492,0,0,0,.237.744,2.021,2.021,0,0,0,1.2.919l.531.071a1.991,1.991,0,0,0,1.01-.273Z"/>
<path class="c" d="M71.718,48.315a14.071,14.071,0,0,0-3.052-1.031,1.526,1.526,0,0,0-.8-.036,1.487,1.487,0,0,0-.743.238,2.233,2.233,0,0,0-.92,1.2,2.027,2.027,0,0,0,.2,1.541,1.97,1.97,0,0,0,1.2.919,12.312,12.312,0,0,1,2.442.772l-.478-.2.133.058a1.492,1.492,0,0,0,.744.237,2.053,2.053,0,0,0,1.993-.954,2.018,2.018,0,0,0,.2-1.541l-.2-.478a2.008,2.008,0,0,0-.718-.718Z"/>
<path class="c" d="M90.109,72.338a12.073,12.073,0,0,0,5.817,1.357,9.582,9.582,0,0,0,5.981-1.811,2,2,0,0,0,0-2.828,2.06,2.06,0,0,0-2.828,0c.691-.539-.024-.013-.243.1-.169.088-.621.229.009.015-.159.054-.312.121-.472.172-.424.136-.91.15-1.321.3.211-.077.324-.038.024-.009-.129.013-.259.024-.389.032-.312.02-.625.028-.939.026q-.42,0-.84-.03c-.128-.009-.257-.019-.385-.032q-.109-.01-.219-.024-.236-.028.183.024c-.047.05-.554-.1-.632-.118-.2-.044-.4-.1-.6-.156-.173-.051-.341-.113-.512-.172-.449-.153.421.2.014.01q-.316-.15-.627-.313a2,2,0,0,0-2.019,3.454Z"/>
<path class="c" d="M94.653,58.968a25.926,25.926,0,0,1,.611,2.795l-.071-.532a1.72,1.72,0,0,1,.01.386l.072-.531a1.018,1.018,0,0,1-.043.173l.2-.478a.756.756,0,0,1-.061.112l.312-.405a.553.553,0,0,1-.091.09L96,60.266a1.88,1.88,0,0,1-.222.117l.478-.2a1.628,1.628,0,0,1-.373.109l.532-.071a1.472,1.472,0,0,1-.351,0l.532.071c-.132-.018-.262-.05-.394-.068a1.523,1.523,0,0,0-.8-.036,1.48,1.48,0,0,0-.744.238,2,2,0,0,0-.718,2.736,1.918,1.918,0,0,0,1.2.919c.351.047.691.135,1.049.151a3.452,3.452,0,0,0,1.609-.392,2.449,2.449,0,0,0,1.32-1.6,3.772,3.772,0,0,0-.014-1.658c-.152-.9-.36-1.793-.592-2.677a2,2,0,0,0-2.46-1.4,2.025,2.025,0,0,0-1.195.919,2.1,2.1,0,0,0-.2,1.542Z"/>
<path class="c" d="M80.418,50.9c-.467,1.517-.163,5.007,2.711,5.3,3.8-.023,4-4.242,2.722-6.226C84.8,48.354,81.726,47.678,80.418,50.9Z"/>
<path class="c" d="M110.838,50.9c.467,1.517.163,5.007-2.711,5.3-3.8-.023-4-4.242-2.722-6.226C106.451,48.354,109.53,47.678,110.838,50.9Z"/>
</g>
</svg>